<?xml version="1.0" encoding="utf-8"?>
<svg version="1.1" xmlns:xlink="http://www.w3.org/1999/xlink" width="21px" height="21px" xmlns="http://www.w3.org/2000/svg">
  <g transform="matrix(1 0 0 1 -1070 -58 )">
    <path d="M 20.9552556818182 16.2720170454545  C 20.9850852272727 16.3416193181818  21 16.4460227272727  21 16.5852272727273  C 21 16.8536931818182  20.9502840909091 17.2041903409091  20.8508522727273 17.63671875  C 20.7514204545455 18.0692471590909  20.6470170454545 18.4098011363636  20.5376420454545 18.6583806818182  C 20.3288352272727 19.1555397727273  19.7223011363636 19.6825284090909  18.7180397727273 20.2393465909091  C 17.7833806818182 20.7464488636364  16.8586647727273 21  15.9438920454545 21  C 15.6754261363636 21  15.4119318181818 20.9825994318182  15.1534090909091 20.9477982954545  C 14.8948863636364 20.9129971590909  14.6090198863636 20.8508522727273  14.2958096590909 20.7613636363636  C 13.9825994318182 20.671875  13.7489346590909 20.5997869318182  13.5948153409091 20.5450994318182  C 13.4406960227273 20.4904119318182  13.1647727272727 20.3884943181818  12.7670454545455 20.2393465909091  C 12.3693181818182 20.0901988636364  12.1257102272727 20.0007102272727  12.0362215909091 19.9708806818182  C 11.0617897727273 19.6228693181818  10.1917613636364 19.2102272727273  9.42613636363636 18.7329545454545  C 8.16335227272727 17.9474431818182  6.85085227272727 16.8735795454545  5.48863636363636 15.5113636363636  C 4.12642045454546 14.1491477272727  3.05255681818182 12.8366477272727  2.26704545454545 11.5738636363636  C 1.78977272727273 10.8082386363636  1.37713068181818 9.93821022727272  1.02911931818182 8.96377840909091  C 0.999289772727273 8.87428977272727  0.909801136363636 8.63068181818182  0.760653409090909 8.23295454545455  C 0.611505681818182 7.83522727272727  0.509588068181818 7.55930397727272  0.454900568181818 7.40518465909091  C 0.400213068181818 7.25106534090909  0.328125 7.01740056818182  0.238636363636364 6.70419034090909  C 0.149147727272727 6.39098011363636  0.0870028409090909 6.10511363636363  0.0522017045454545 5.84659090909091  C 0.0174005681818182 5.58806818181818  0 5.32457386363636  0 5.05610795454545  C 0 4.14133522727273  0.253551136363636 3.21661931818182  0.760653409090909 2.28196022727273  C 1.31747159090909 1.27769886363636  1.84446022727273 0.671164772727273  2.34161931818182 0.462357954545454  C 2.59019886363636 0.352982954545453  2.93075284090909 0.248579545454543  3.36328125 0.149147727272727  C 3.79580965909091 0.0497159090909082  4.14630681818182 0  4.41477272727273 0  C 4.55397727272727 0  4.65838068181818 0.0149147727272732  4.72798295454545 0.0447443181818171  C 4.90696022727273 0.10440340909091  5.17045454545455 0.482244318181818  5.51846590909091 1.17826704545455  C 5.62784090909091 1.3671875  5.77698863636364 1.63565340909091  5.96590909090909 1.98366477272727  C 6.15482954545455 2.33167613636363  6.32883522727273 2.64737215909091  6.48792613636364 2.93075284090909  C 6.64701704545455 3.21413352272727  6.80113636363636 3.48011363636363  6.95028409090909 3.72869318181818  C 6.98011363636364 3.76846590909091  7.06711647727273 3.89275568181818  7.21129261363636 4.1015625  C 7.35546875 4.31036931818182  7.46235795454546 4.48686079545455  7.53196022727273 4.63103693181818  C 7.6015625 4.77521306818182  7.63636363636364 4.91690340909091  7.63636363636364 5.05610795454545  C 7.63636363636364 5.25497159090909  7.49467329545455 5.50355113636364  7.21129261363636 5.80184659090909  C 6.92791193181818 6.10014204545455  6.61967329545455 6.37357954545455  6.28657670454546 6.62215909090909  C 5.95348011363636 6.87073863636363  5.64524147727273 7.13423295454545  5.36186079545455 7.41264204545455  C 5.07848011363636 7.69105113636364  4.93678977272727 7.91974431818182  4.93678977272727 8.09872159090909  C 4.93678977272727 8.18821022727273  4.96164772727273 8.30007102272727  5.01136363636364 8.43430397727273  C 5.06107954545455 8.56853693181818  5.10333806818182 8.67045454545455  5.13813920454545 8.74005681818182  C 5.17294034090909 8.80965909090909  5.24254261363636 8.92897727272727  5.34694602272727 9.09801136363636  C 5.45134943181818 9.26704545454546  5.50852272727273 9.36150568181818  5.51846590909091 9.38139204545455  C 6.27414772727273 10.7436079545455  7.13920454545455 11.9119318181818  8.11363636363636 12.8863636363636  C 9.08806818181818 13.8607954545455  10.2563920454545 14.7258522727273  11.6186079545455 15.4815340909091  C 11.6384943181818 15.4914772727273  11.7329545454545 15.5486505681818  11.9019886363636 15.6530539772727  C 12.0710227272727 15.7574573863636  12.1903409090909 15.8270596590909  12.2599431818182 15.8618607954545  C 12.3295454545455 15.8966619318182  12.4314630681818 15.9389204545455  12.5656960227273 15.9886363636364  C 12.6999289772727 16.0383522727273  12.8117897727273 16.0632102272727  12.9012784090909 16.0632102272727  C 13.0802556818182 16.0632102272727  13.3089488636364 15.9215198863636  13.5873579545455 15.6381392045455  C 13.8657670454545 15.3547585227273  14.1292613636364 15.0465198863636  14.3778409090909 14.7134232954545  C 14.6264204545455 14.3803267045454  14.8998579545455 14.0720880681818  15.1981534090909 13.7887073863636  C 15.4964488636364 13.5053267045455  15.7450284090909 13.3636363636364  15.9438920454545 13.3636363636364  C 16.0830965909091 13.3636363636364  16.2247869318182 13.3984375  16.3689630681818 13.4680397727273  C 16.5131392045455 13.5376420454545  16.6896306818182 13.64453125  16.8984375 13.7887073863636  C 17.1072443181818 13.9328835227273  17.2315340909091 14.0198863636364  17.2713068181818 14.0497159090909  C 17.5198863636364 14.1988636363636  17.7858664772727 14.3529829545455  18.0692471590909 14.5120738636364  C 18.3526278409091 14.6711647727273  18.6683238636364 14.8451704545455  19.0163352272727 15.0340909090909  C 19.3643465909091 15.2230113636364  19.6328125 15.3721590909091  19.8217329545455 15.4815340909091  C 20.5177556818182 15.8295454545455  20.8955965909091 16.0930397727273  20.9552556818182 16.2720170454545  Z " fill-rule="nonzero" fill="#808080" stroke="none" transform="matrix(1 0 0 1 1070 58 )" />
  </g>
</svg>